<svg xmlns="http://www.w3.org/2000/svg" xmlns:cc="http://web.resource.org/cc/" xmlns:svg="http://www.w3.org/2000/svg" xmlns:xlink="http://www.w3.org/1999/xlink" id="svg2" width="48" height="48" version="1.0"><metadata id="metadata7"/><defs id="defs5"><linearGradient id="linearGradient7822"><stop id="stop7824" offset="0" stop-color="#000" stop-opacity="1"/><stop id="stop7826" offset="1" stop-color="#000" stop-opacity="0"/></linearGradient><linearGradient id="linearGradient7812"><stop id="stop7814" offset="0" stop-color="#000" stop-opacity="1"/><stop id="stop7816" offset="1" stop-color="#000" stop-opacity="0"/></linearGradient><linearGradient id="linearGradient7688"><stop id="stop7690" offset="0" stop-color="#000" stop-opacity="1"/><stop id="stop7692" offset="1" stop-color="#000" stop-opacity="0"/></linearGradient><linearGradient id="linearGradient7660"><stop id="stop7662" offset="0" stop-color="#fff" stop-opacity="1"/><stop id="stop7664" offset="1" stop-color="#fff" stop-opacity="0"/></linearGradient><linearGradient id="linearGradient7652"><stop id="stop7654" offset="0" stop-color="#729fcf" stop-opacity="1"/><stop id="stop7656" offset="1" stop-color="#729fcf" stop-opacity="0"/></linearGradient><linearGradient id="linearGradient7576"><stop id="stop7578" offset="0" stop-color="#3465a4" stop-opacity="1"/><stop id="stop7580" offset="1" stop-color="#3465a4" stop-opacity="0"/></linearGradient><linearGradient id="linearGradient7438"><stop id="stop7440" offset="0" stop-color="#fff" stop-opacity="1"/><stop id="stop7442" offset="1" stop-color="#fff" stop-opacity="0"/></linearGradient><linearGradient id="linearGradient7430"><stop id="stop7432" offset="0" stop-color="#fff" stop-opacity="1"/><stop id="stop7434" offset="1" stop-color="#fff" stop-opacity="0"/></linearGradient><linearGradient id="linearGradient7422"><stop id="stop7424" offset="0" stop-color="#edd400" stop-opacity="1"/><stop id="stop7426" offset="1" stop-color="#edd400" stop-opacity="0"/></linearGradient><linearGradient id="linearGradient7340"><stop id="stop7342" offset="0" stop-color="#2e3436" stop-opacity="1"/><stop id="stop7344" offset="1" stop-color="#555753" stop-opacity="1"/></linearGradient><linearGradient id="linearGradient7277"><stop id="stop7279" offset="0" stop-color="#555753" stop-opacity="1"/><stop id="stop7281" offset="1" stop-color="#d3d7cf" stop-opacity="1"/></linearGradient><linearGradient id="linearGradient7269"><stop id="stop7271" offset="0" stop-color="#fff" stop-opacity="1"/><stop id="stop7273" offset="1" stop-color="#d3d7cf" stop-opacity="1"/></linearGradient><linearGradient id="linearGradient7263"><stop id="stop7265" offset="0" stop-color="#adb0a8" stop-opacity="1"/><stop id="stop7267" offset="1" stop-color="#fff" stop-opacity="1"/></linearGradient><linearGradient id="linearGradient7257"><stop id="stop7259" offset="0" stop-color="#000" stop-opacity="1"/><stop id="stop7261" offset="1" stop-color="#000" stop-opacity="0"/></linearGradient><linearGradient id="linearGradient7245"><stop id="stop7247" offset="0" stop-color="#eeeeec" stop-opacity="1"/><stop id="stop7249" offset="1" stop-color="#fff" stop-opacity="1"/></linearGradient><linearGradient id="linearGradient7237"><stop id="stop7239" offset="0" stop-color="#eeeeec" stop-opacity="1"/><stop id="stop7241" offset="1" stop-color="#babdb6" stop-opacity="1"/></linearGradient><linearGradient id="linearGradient7186"><stop id="stop7188" offset="0" stop-color="#888a85" stop-opacity="1"/><stop id="stop7190" offset="1" stop-color="#fff" stop-opacity="1"/></linearGradient><linearGradient id="linearGradient6991"><stop id="stop6993" offset="0" stop-color="#d3d7cf" stop-opacity="1"/><stop id="stop6995" offset="1" stop-color="#fff" stop-opacity="1"/></linearGradient><linearGradient id="linearGradient6047" x1="-7.975" x2="-11.006" y1="25.357" y2="-6.568" gradientTransform="matrix(2.0000002,0,0,1.9333333,43.500004,0.533333)" gradientUnits="userSpaceOnUse" xlink:href="#linearGradient6991"/><linearGradient id="linearGradient7346" x1="32.813" x2="32.813" y1="21" y2="26.205" gradientTransform="matrix(1.0874899,0,0,1.086371,-1.5809531,-8.9433469)" gradientUnits="userSpaceOnUse" xlink:href="#linearGradient7340"/><linearGradient id="linearGradient7428" x1="30.313" x2="30.313" y1="27.313" y2="24.688" gradientUnits="userSpaceOnUse" xlink:href="#linearGradient7422"/><linearGradient id="linearGradient7436" x1="28.875" x2="29" y1="29" y2="16" gradientTransform="translate(1,-7)" gradientUnits="userSpaceOnUse" xlink:href="#linearGradient7430"/><linearGradient id="linearGradient7444" x1="-7.852" x2="-5.51" y1="3.755" y2="18.938" gradientUnits="userSpaceOnUse" xlink:href="#linearGradient7438"/><linearGradient id="linearGradient7446" x1="30.313" x2="30.313" y1="27.313" y2="24.688" gradientUnits="userSpaceOnUse" xlink:href="#linearGradient7422"/><linearGradient id="linearGradient7448" x1="30.313" x2="30.313" y1="27.313" y2="24.688" gradientUnits="userSpaceOnUse" xlink:href="#linearGradient7422"/><linearGradient id="linearGradient7450" x1="30.313" x2="30.313" y1="27.313" y2="24.688" gradientUnits="userSpaceOnUse" xlink:href="#linearGradient7422"/><linearGradient id="linearGradient7452" x1="30.313" x2="30.313" y1="27.313" y2="24.688" gradientUnits="userSpaceOnUse" xlink:href="#linearGradient7422"/><linearGradient id="linearGradient7555" x1="1.626" x2=".822" y1="55.219" y2="54.416" gradientUnits="userSpaceOnUse" xlink:href="#linearGradient7263"/><linearGradient id="linearGradient7557" x1="-4.221" x2="-4.221" y1="59.879" y2="54.708" gradientTransform="matrix(0.9642856,0,0,0.9722222,-0.2500008,1.6944444)" gradientUnits="userSpaceOnUse" xlink:href="#linearGradient7269"/><linearGradient id="linearGradient7559" x1="-1.989" x2="-3.359" y1="51.138" y2="54" gradientTransform="translate(-4,-24)" gradientUnits="userSpaceOnUse" xlink:href="#linearGradient7257"/><linearGradient id="linearGradient7561" x1="-4.685" x2=".884" y1="52.64" y2="50.563" gradientTransform="translate(-4,-24)" gradientUnits="userSpaceOnUse" xlink:href="#linearGradient7237"/><linearGradient id="linearGradient7563" x1="-5.082" x2=".265" y1="50.519" y2="49.458" gradientTransform="translate(-4,-24)" gradientUnits="userSpaceOnUse" xlink:href="#linearGradient7245"/><linearGradient id="linearGradient7565" x1="-5.969" x2="-5.969" y1="52.875" y2="51.812" gradientTransform="translate(-4,-24)" gradientUnits="userSpaceOnUse" xlink:href="#linearGradient7186"/><linearGradient id="linearGradient7567" x1="-3.536" x2="-3.536" y1="55.867" y2="59.445" gradientTransform="matrix(1,0,0,1.0285717,-4,-25.142872)" gradientUnits="userSpaceOnUse" xlink:href="#linearGradient7277"/><linearGradient id="linearGradient7574" x1="-4.11" x2="-4.11" y1="58.808" y2="55" gradientTransform="matrix(1.1249999,0,0,1.1666666,15.874999,-34.135417)" gradientUnits="userSpaceOnUse" xlink:href="#linearGradient7269"/><linearGradient id="linearGradient7582" x1="38.75" x2="40.125" y1="40.625" y2="46.563" gradientUnits="userSpaceOnUse" xlink:href="#linearGradient7576"/><linearGradient id="linearGradient7658" x1="37.625" x2="38.875" y1="40.313" y2="45.063" gradientUnits="userSpaceOnUse" xlink:href="#linearGradient7652"/><linearGradient id="linearGradient7666" x1="41.188" x2="42.124" y1="38.313" y2="42.938" gradientUnits="userSpaceOnUse" xlink:href="#linearGradient7660"/><linearGradient id="linearGradient7694" x1="28.625" x2="30.5" y1="41.125" y2="47.813" gradientUnits="userSpaceOnUse" xlink:href="#linearGradient7688"/><linearGradient id="linearGradient7818" x1="-6.406" x2="-7.781" y1="32.438" y2="34.563" gradientUnits="userSpaceOnUse" xlink:href="#linearGradient7812"/><radialGradient id="radialGradient7828" cx="14.363" cy="34.786" r="8.795" fx="14.363" fy="34.786" gradientTransform="matrix(1,0,0,0.6884422,0,10.837832)" gradientUnits="userSpaceOnUse" xlink:href="#linearGradient7822"/><filter id="filter5386"><feGaussianBlur id="feGaussianBlur5388" stdDeviation=".263"/></filter><filter id="filter5406"><feGaussianBlur id="feGaussianBlur5408" stdDeviation=".782"/></filter></defs><path id="path7013" fill="#fff" fill-opacity="1" fill-rule="evenodd" stroke="none" stroke-dashoffset=".7" stroke-linecap="round" stroke-linejoin="miter" stroke-miterlimit="4" stroke-opacity=".992" stroke-width="1" d="M 5,12 L 8,12 L 10,12 L 7,12 L 5,12 z"/><path id="path7820" fill="url(#radialGradient7828)" fill-opacity="1" fill-rule="evenodd" stroke="none" stroke-dasharray="none" stroke-dashoffset=".7" stroke-linecap="round" stroke-linejoin="round" stroke-miterlimit="4" stroke-opacity="1" stroke-width="1" d="M 23.157747 34.785942 A 8.7946405 6.0546017 0 1 1 5.5684662,34.785942 A 8.7946405 6.0546017 0 1 1 23.157747 34.785942 z" opacity=".459" transform="matrix(1.1559927,0,0,1.1167882,-1.4892394,-5.8125919)"/><rect id="rect7696" width="32" height="29" x="15.375" y="2.875" fill="#000" fill-opacity="1" fill-rule="evenodd" stroke="none" stroke-dasharray="none" stroke-dashoffset=".7" stroke-linecap="round" stroke-linejoin="round" stroke-miterlimit="4" stroke-opacity=".992" stroke-width="1" filter="url(#filter5386)" opacity=".12" rx="3.723" ry="3.723" transform="matrix(1.015625,0,0,1.015625,-0.4902344,-0.2714844)"/><rect id="rect5925" width="32" height="29" x="14.5" y="1.5" fill="url(#linearGradient6047)" fill-opacity="1" fill-rule="evenodd" stroke="#888a85" stroke-dasharray="none" stroke-dashoffset=".7" stroke-linecap="round" stroke-linejoin="round" stroke-miterlimit="4" stroke-opacity=".992" stroke-width="1" rx="2.877" ry="2.781"/><path id="path6964" fill="none" fill-opacity="1" fill-rule="evenodd" stroke="url(#linearGradient7444)" stroke-dasharray="none" stroke-dashoffset=".7" stroke-linecap="round" stroke-linejoin="round" stroke-miterlimit="4" stroke-opacity=".992" stroke-width=".473" d="M -12.5,1.5 C -13.072952,1.5 -13.5,1.9270471 -13.5,2.5 L -13.5,13.5 C -13.5,14.072953 -13.072954,14.5 -12.5,14.5 L -0.5,14.5 C 0.072953444,14.5 0.5,14.072954 0.5,13.5 L 0.5,2.5 C 0.5,1.9270468 0.072953144,1.5 -0.5,1.5 L -12.5,1.5 z" transform="matrix(2.1428572,0,0,2.0867798,44.428572,-0.6301697)"/><path id="path7678" fill="url(#linearGradient7694)" fill-opacity="1" fill-rule="evenodd" stroke="none" stroke-dasharray="none" stroke-linecap="butt" stroke-linejoin="round" stroke-miterlimit="4" stroke-opacity="1" stroke-width="1" d="M 14.6875,31 C 14.619177,31.017916 14.555326,31.049841 14.5,31.09375 C 14.5,31.09375 10.195229,34.415989 6.28125,37.65625 C 4.316376,39.282908 2.5162731,40.913519 1.4375,42.5625 C 0.91466802,43.361686 0.33442463,44.404861 0.71875,45.75 C 0.9275427,46.480774 1.4549221,47.109726 2.0625,47.46875 C 2.6167319,47.796251 3.1674141,47.932778 3.75,48 C 6.0211642,48.262057 8.6583138,47.609306 11.78125,46.71875 C 14.911534,45.826099 18.484598,44.604207 22.0625,43.4375 C 25.639946,42.270942 29.261929,41.155126 32.375,40.46875 C 35.48201,39.783711 38.133895,39.627224 39.5,39.96875 C 39.718805,40.023451 39.763413,40.030877 39.84375,40.0625 C 39.824168,40.168535 39.78709,40.288372 39.6875,40.5 C 39.197395,41.541473 37.544362,43.481849 35.625,45.28125 C 31.779852,48.886076 26.84375,52.375 26.84375,52.375 C 26.730444,52.452627 26.653276,52.57271 26.629743,52.708026 C 26.60621,52.843342 26.638304,52.982428 26.71875,53.09375 L 28.46875,55.53125 C 28.637946,55.737822 28.937922,55.778728 29.15625,55.625 C 29.15625,55.625 34.220988,52.113137 38.375,48.21875 C 40.448974,46.2744 42.325551,44.284766 43.3125,42.1875 C 43.80516,41.140598 44.157793,39.847802 43.65625,38.53125 C 43.146184,37.192325 41.882294,36.376823 40.5,36.03125 C 37.894103,35.379776 34.829212,35.821579 31.46875,36.5625 C 28.102571,37.304681 24.425802,38.446749 20.8125,39.625 C 17.200009,40.802986 13.693676,41.995401 10.71875,42.84375 C 8.5379899,43.465629 6.8269173,43.771279 5.59375,43.875 C 6.3789191,42.999609 7.4710187,41.917692 8.84375,40.78125 C 12.555108,37.708732 16.8125,34.40625 16.8125,34.40625 C 17.029502,34.246251 17.084294,33.944894 16.9375,33.71875 L 15.25,31.21875 C 15.130504,31.030679 14.902661,30.942074 14.6875,31 z" filter="url(#filter5406)" opacity=".319" transform="translate(0.25,-0.625)"/><g id="g7542" transform="translate(20,0)"><g id="g7162" transform="matrix(1.1666667,0,0,1.2,-3.833333,-36.2)"><path id="rect6100" fill="url(#linearGradient7555)" fill-opacity="1" fill-rule="evenodd" stroke="none" stroke-dashoffset=".7" stroke-linecap="round" stroke-linejoin="miter" stroke-miterlimit="4" stroke-opacity=".992" stroke-width="1" d="M -2.34375,51 C -2.5485199,51 -2.7249072,51.101237 -2.84375,51.25 L -6.859375,55.25 C -6.8943841,55.381797 -6.9584881,55.521336 -7,55.65625 L -7,61.177083 C -7,61.540646 -6.7034811,61.833333 -6.34375,61.833333 L 0.34375,61.833333 C 0.52361547,61.833333 0.6951329,61.76445 0.8125,61.645833 L 4.8125,57.645833 C 4.9298671,57.527216 5,57.358864 5,57.177083 L 5,51.65625 C 5,51.474469 4.9298671,51.306117 4.8125,51.1875 C 4.6934039,51.068883 4.5236156,51 4.34375,51 L -2.34375,51 z"/><path id="path6105" fill="url(#linearGradient7557)" fill-opacity="1" fill-rule="evenodd" stroke="none" stroke-dashoffset=".7" stroke-linecap="round" stroke-linejoin="miter" stroke-miterlimit="4" stroke-opacity=".992" stroke-width="1" d="M -6.3738568,55.166667 L 0.088142442,55.166667 C 0.43502581,55.166667 0.71428575,55.451224 0.71428575,55.804688 L 0.71428575,61.195312 C 0.71428575,61.548776 0.43502581,61.833333 0.088142442,61.833333 L -6.3738568,61.833333 C -6.7207401,61.833333 -7,61.548776 -7,61.195312 L -7,55.804688 C -7,55.451224 -6.7207401,55.166667 -6.3738568,55.166667 z"/></g><path id="path7253" fill="url(#linearGradient7559)" fill-opacity="1" fill-rule="evenodd" stroke="none" stroke-linecap="butt" stroke-linejoin="miter" stroke-opacity="1" stroke-width="1" d="M -5,25 L -10,30 L -6,30 L -1,25 L -5,25" opacity=".123"/><path id="path6126" fill="#babdb6" fill-rule="evenodd" stroke="none" stroke-linecap="butt" stroke-linejoin="miter" stroke-opacity="1" stroke-width="1" d="M -1,25 L -10.5,29 L -7,29 L -2,26 L -1,25"/><path id="path7235" fill="none" fill-opacity="1" fill-rule="evenodd" stroke="#fff" stroke-dashoffset=".7" stroke-linecap="round" stroke-linejoin="round" stroke-miterlimit="4" stroke-opacity="1" stroke-width="1" d="M -6.5625,25.5 C -6.586332,25.5 -6.617114,25.506448 -6.71875,25.625 C -6.748761,25.647634 -6.780064,25.668503 -6.8125,25.6875 C -6.832372,25.709273 -6.853227,25.730128 -6.875,25.75 C -6.894872,25.771773 -6.915727,25.792628 -6.9375,25.8125 L -6.96875,25.8125 C -6.988622,25.834273 -7.009477,25.855128 -7.03125,25.875 L -7.21875,26.0625 C -7.325593,26.162845 -7.453812,26.237639 -7.59375,26.28125 L -11.84375,27.5 C -12.244246,27.708356 -12.377785,27.84932 -12.4375,27.96875 C -12.438388,27.970526 -12.403483,28.103321 -12.4375,28.0625 C -12.355653,28.160716 -12.077127,28.314744 -11.59375,28.40625 C -11.253853,28.475121 -10.976692,28.720417 -10.867022,29.049424 C -10.757353,29.378432 -10.831905,29.740965 -11.0625,30 L -11.40625,30.375 C -11.426065,30.462564 -11.460093,30.545084 -11.5,30.6875 C -11.507455,30.714105 -11.491841,30.722726 -11.5,30.75 L -11.5,37.25 C -11.5,37.304188 -11.499624,37.365539 -11.4375,37.4375 C -11.40601,37.473977 -11.334247,37.5 -11.28125,37.5 L -3.4375,37.5 C -3.344928,37.5 -3.269061,37.4898 -3.21875,37.4375 C -3.218918,37.427084 -3.218918,37.416666 -3.21875,37.40625 L 1.4375,32.59375 C 1.489686,32.539502 1.5,32.514607 1.5,32.40625 L 1.5,25.78125 C 1.5,25.6729 1.489688,25.616751 1.4375,25.5625 C 1.400675,25.524775 1.282521,25.5 1.25,25.5 L -6.5625,25.5 z" opacity=".534"/><path id="path7229" fill="none" fill-opacity="1" fill-rule="evenodd" stroke="#555753" stroke-dashoffset=".7" stroke-linecap="round" stroke-linejoin="round" stroke-miterlimit="4" stroke-opacity="1" stroke-width="1" d="M -6.5625,24.53125 C -6.950241,24.53125 -7.254192,24.749731 -7.46875,25 L -7.5,24.96875 L -7.53125,25.03125 L -7.875,25.34375 L -12.125,26.5625 C -12.157264,26.569585 -12.188688,26.58006 -12.21875,26.59375 C -12.767664,26.868207 -13.120777,27.147804 -13.3125,27.53125 C -13.504223,27.914696 -13.429021,28.397675 -13.1875,28.6875 C -12.859423,29.081192 -12.329894,29.239888 -11.78125,29.34375 L -12.1875,29.78125 C -12.243792,29.832657 -12.286698,29.897016 -12.3125,29.96875 C -12.343846,30.090131 -12.382395,30.284537 -12.4375,30.46875 C -12.45362,30.50878 -12.464136,30.550844 -12.46875,30.59375 L -12.46875,37.25 C -12.46875,37.54887 -12.355519,37.831675 -12.15625,38.0625 C -11.956981,38.293325 -11.645384,38.46875 -11.28125,38.46875 L -3.4375,38.46875 C -3.113867,38.46875 -2.780607,38.352963 -2.53125,38.09375 L 2.125,33.28125 C 2.35088,33.046445 2.46875,32.741604 2.46875,32.40625 L 2.46875,25.78125 C 2.46875,25.445897 2.350877,25.141055 2.125,24.90625 C 1.901344,24.677132 1.573636,24.53125 1.25,24.53125 L -6.5625,24.53125 z"/><path id="path7184" fill="url(#linearGradient7561)" fill-opacity="1" fill-rule="evenodd" stroke="none" stroke-linecap="butt" stroke-linejoin="miter" stroke-opacity="1" stroke-width="1" d="M -1,25 L -12,27.5 L -10,29 L -7,29 L -2,26 L -1,25"/><path id="path7171" fill="url(#linearGradient7563)" fill-opacity="1" fill-rule="evenodd" stroke="none" stroke-linecap="butt" stroke-linejoin="miter" stroke-opacity="1" stroke-width="1" d="M -5,25 L -12,27 L -8,27 L -1,25 L -5,25"/><path id="rect7173" fill="url(#linearGradient7565)" fill-opacity="1" fill-rule="evenodd" stroke="none" stroke-dashoffset=".7" stroke-linecap="round" stroke-linejoin="round" stroke-miterlimit="4" stroke-opacity="1" stroke-width="1" d="M -12,27 L -8.2868349,27 L -8,27 C -10,28 -8.5,29 -7,29 L -11,29 C -12.5,29 -14,28 -12,27 z"/><path id="path7275" fill="url(#linearGradient7567)" fill-opacity="1" fill-rule="evenodd" stroke="none" stroke-dashoffset=".7" stroke-linecap="round" stroke-linejoin="miter" stroke-miterlimit="4" stroke-opacity=".992" stroke-width="1" d="M -9.5941664,32 L -5.405834,32 C -5.181002,32 -5,32.195125 -5,32.4375 L -5,35.5625 C -5,35.804876 -5.181002,36 -5.405834,36 L -9.5941664,36 C -9.8189979,36 -10,35.804876 -10,35.5625 L -10,32.4375 C -10,32.195125 -9.8189979,32 -9.5941664,32 z"/></g><path id="rect7327" fill="url(#linearGradient7346)" fill-opacity="1" fill-rule="evenodd" stroke="none" stroke-dasharray="none" stroke-dashoffset=".7" stroke-linecap="round" stroke-linejoin="round" stroke-miterlimit="4" stroke-opacity="1" stroke-width="1" d="M 29.480478,10.068145 C 28.841463,10.068145 28.32502,10.584057 28.32502,11.222414 L 28.32502,11.510202 C 28.32502,11.803424 28.095708,12.053387 27.781275,12.053387 L 26.218008,12.053387 C 25.578993,12.053387 25.06255,12.756799 25.06255,13.395156 L 25.06255,19.840086 C 25.06255,20.478444 25.578994,20.994355 26.218008,20.994355 L 34.781992,20.994355 C 35.421007,20.994355 35.93745,20.478443 35.93745,19.840086 L 35.93745,13.395156 C 35.93745,12.756798 35.421008,12.053387 34.781992,12.053387 L 33.218725,12.053387 C 32.956948,12.071055 32.67498,11.867091 32.67498,11.527176 L 32.67498,11.222414 C 32.67498,10.584056 32.158536,10.068145 31.519522,10.068145 L 29.480478,10.068145 z" opacity="1"/><path id="path7350" fill="none" fill-opacity="1" fill-rule="evenodd" stroke="url(#linearGradient7436)" stroke-dashoffset=".7" stroke-linecap="round" stroke-linejoin="miter" stroke-miterlimit="4" stroke-opacity="1" stroke-width="1" d="M 29.5625,9.4375 C 28.453144,9.4375 27.577814,10.345513 27.5,11.4375 L 26.5625,11.4375 C 25.40342,11.4375 24.4375,12.403421 24.4375,13.5625 L 24.4375,19.4375 C 24.4375,20.59658 25.403421,21.5625 26.5625,21.5625 L 34.4375,21.5625 C 35.59658,21.5625 36.5625,20.596579 36.5625,19.4375 L 36.5625,13.5625 C 36.5625,12.403423 35.596579,11.4375 34.4375,11.4375 L 33.5,11.4375 C 33.422186,10.345512 32.546855,9.4375 31.4375,9.4375 L 29.5625,9.4375 z"/><g id="g7393" fill-opacity="1" stroke="url(#linearGradient7428)" transform="translate(1,-8)"><path id="path7352" fill="none" fill-opacity="1" fill-rule="evenodd" stroke="url(#linearGradient7446)" stroke-linecap="round" stroke-linejoin="miter" stroke-opacity="1" stroke-width="1" d="M 26.5,26.5 L 26.5,24.5"/><path id="path7362" fill="none" fill-opacity="1" fill-rule="evenodd" stroke="url(#linearGradient7448)" stroke-linecap="round" stroke-linejoin="miter" stroke-opacity="1" stroke-width="1" d="M 28.5,26.5 L 28.5,24.5"/><path id="path7364" fill="none" fill-opacity="1" fill-rule="evenodd" stroke="url(#linearGradient7450)" stroke-linecap="round" stroke-linejoin="miter" stroke-opacity="1" stroke-width="1" d="M 30.5,26.5 L 30.5,24.5"/><path id="path7366" fill="none" fill-opacity="1" fill-rule="evenodd" stroke="url(#linearGradient7452)" stroke-linecap="round" stroke-linejoin="miter" stroke-opacity="1" stroke-width="1" d="M 32.5,26.5 L 32.5,24.5"/></g><path id="path7506" fill="url(#linearGradient7658)" fill-opacity="1" fill-rule="evenodd" stroke="url(#linearGradient7582)" stroke-dasharray="none" stroke-linecap="butt" stroke-linejoin="round" stroke-miterlimit="4" stroke-opacity="1" stroke-width="1" d="M 14.6875,30.5625 C 14.6875,30.5625 10.498126,33.830189 6.59375,37.0625 C 4.6415622,38.678655 2.8956918,40.28355 1.875,41.84375 C 1.3646541,42.62385 0.8878846,43.466971 1.21875,44.625 C 1.3841827,45.204014 1.8301355,45.746216 2.3125,46.03125 C 2.7948645,46.316284 3.2706533,46.437479 3.8125,46.5 C 5.9363798,46.745063 8.5434834,46.106406 11.65625,45.21875 C 14.769017,44.331094 18.325496,43.136387 21.90625,41.96875 C 25.487004,40.801113 29.102635,39.662687 32.25,38.96875 C 35.397365,38.274813 38.085104,38.083776 39.625,38.46875 C 40.353931,38.650983 40.370552,38.769574 40.375,38.78125 C 40.379448,38.792926 40.439577,39.11668 40.15625,39.71875 C 39.589596,40.92289 37.911115,42.835283 35.96875,44.65625 C 32.08402,48.298184 27.125,51.78125 27.125,51.78125 L 28.875,54.21875 C 28.875,54.21875 33.91598,50.701816 38.03125,46.84375 C 40.088885,44.914717 41.910404,42.95211 42.84375,40.96875 C 43.310423,39.97707 43.620552,38.855512 43.1875,37.71875 C 42.754448,36.581988 41.646069,35.849017 40.375,35.53125 C 37.914896,34.916224 34.93076,35.32675 31.59375,36.0625 C 28.25674,36.79825 24.575496,37.917637 20.96875,39.09375 C 17.362004,40.269863 13.840358,41.489218 10.84375,42.34375 C 7.9314529,43.174239 5.5458184,43.563842 4.375,43.46875 C 4.9949332,42.521138 6.6709378,40.915095 8.53125,39.375 C 12.251874,36.294811 16.5,33 16.5,33 L 14.6875,30.5625 z"/><path id="path7502" fill="none" fill-opacity="1" fill-rule="evenodd" stroke="url(#linearGradient7666)" stroke-linecap="butt" stroke-linejoin="miter" stroke-opacity="1" stroke-width="1" d="M 15.672335,31.269607 C 15.672335,31.269607 -2.765165,43.957107 3.734835,44.707107 C 10.234835,45.457107 31.734835,34.707107 39.734835,36.707107 C 47.734835,38.707107 27.734835,52.707107 27.734835,52.707107" opacity=".19"/><path id="path7512" fill="url(#linearGradient7574)" fill-opacity="1" fill-rule="evenodd" stroke="none" stroke-dashoffset=".7" stroke-linecap="round" stroke-linejoin="miter" stroke-miterlimit="4" stroke-opacity=".992" stroke-width="1" d="M 10.088769,30.03125 L 10.40625,32.03125 L 14.59375,32.03125 C 14.818582,32.03125 15,32.226375 15,32.46875 L 15,35.59375 L 17,35.28125 L 17,30.8125 C 17,30.388343 16.685946,30.03125 16.28125,30.03125 L 10.088769,30.03125 z"/><path id="path7810" fill="url(#linearGradient7818)" fill-opacity="1" fill-rule="evenodd" stroke="none" stroke-dashoffset=".7" stroke-linecap="round" stroke-linejoin="miter" stroke-miterlimit="4" stroke-opacity=".992" stroke-width="1" d="M -9.5941664,32 L -5.405834,32 C -5.181002,32 -5,32.195125 -5,32.4375 L -5,35.5625 C -5,35.804876 -5.181002,36 -5.405834,36 L -9.5941664,36 C -9.8189979,36 -10,35.804876 -10,35.5625 L -10,32.4375 C -10,32.195125 -9.8189979,32 -9.5941664,32 z" opacity=".354" transform="translate(20,0)"/></svg>