<svg xmlns="http://www.w3.org/2000/svg" xmlns:svg="http://www.w3.org/2000/svg" xmlns:xlink="http://www.w3.org/1999/xlink" id="svg2" width="720" height="720" version="1.0"><defs id="defs4"><linearGradient id="linearGradient3244"><stop id="stop3246" offset="0" stop-color="#969696" stop-opacity="1"/><stop id="stop3248" offset="1" stop-color="#000" stop-opacity="1"/></linearGradient><radialGradient id="radialGradient3250" cx="382.01" cy="779.005" r="150.907" fx="382.01" fy="779.005" gradientTransform="matrix(1,0,0,0.7028571,0,231.4758)" gradientUnits="userSpaceOnUse" xlink:href="#linearGradient3244"/><radialGradient id="radialGradient4978" cx="382.01" cy="779.005" r="150.907" fx="382.01" fy="779.005" gradientTransform="matrix(1,0,0,0.7028571,0,231.4758)" gradientUnits="userSpaceOnUse" xlink:href="#linearGradient3244"/><radialGradient id="radialGradient5001" cx="382.01" cy="779.005" r="150.907" fx="382.01" fy="779.005" gradientTransform="matrix(1,0,0,0.7028571,0,231.4758)" gradientUnits="userSpaceOnUse" xlink:href="#linearGradient3244"/><radialGradient id="radialGradient5012" cx="382.01" cy="779.005" r="150.907" fx="382.01" fy="779.005" gradientTransform="matrix(1,0,0,0.7028571,0,231.4758)" gradientUnits="userSpaceOnUse" xlink:href="#linearGradient3244"/></defs><metadata id="metadata7"/><g id="layer1" transform="translate(-16,-9.9999999)"><g id="g5056" fill="#00ff29" fill-opacity="1" opacity="1" transform="matrix(1.1648659,0,0,0.9712156,4.240438,14.085049)"><path id="path2453" fill="#00ff29" fill-opacity="1" fill-rule="evenodd" stroke="#000" stroke-dasharray="none" stroke-linecap="butt" stroke-linejoin="miter" stroke-miterlimit="4" stroke-opacity="1" stroke-width="16.996" d="M 186.59175,18.498 C 95.429114,33.24071 24.498002,144.28242 24.498,278.9355 C 24.498,419.56035 101.86548,534.42119 198.84175,540.748 C 137.82026,495.75066 95.154254,393.49877 95.154254,274.623 C 95.154254,163.86715 132.18304,67.53565 186.59175,18.498 z"/><path id="path3232" fill="#00ff29" fill-opacity="1" fill-rule="evenodd" stroke="#000" stroke-dasharray="none" stroke-linecap="butt" stroke-linejoin="miter" stroke-miterlimit="4" stroke-opacity="1" stroke-width="16.996" d="M 452.38876,18.498 C 543.5514,33.24071 614.48251,144.28242 614.48251,278.9355 C 614.48251,419.56035 537.11503,534.42119 440.13876,540.748 C 501.16025,495.75066 543.82626,393.49877 543.82626,274.623 C 543.82626,163.86715 506.79747,67.53565 452.38876,18.498 z"/><path id="path3234" fill="#00ff29" fill-opacity="1" fill-rule="evenodd" stroke="#000" stroke-dasharray="none" stroke-linecap="butt" stroke-linejoin="miter" stroke-miterlimit="4" stroke-opacity="1" stroke-width="8.543" d="M 386.35021,146.20734 C 431.4318,153.73978 466.50854,210.47392 466.50854,279.27174 C 466.50854,351.12069 428.2489,409.80612 380.29235,413.03866 C 410.4686,390.04833 431.56772,337.80514 431.56772,277.06836 C 431.56772,220.48028 413.25631,171.26197 386.35021,146.20734 z"/><path id="path3236" fill="#00ff29" fill-opacity="1" fill-rule="evenodd" stroke="#000" stroke-dasharray="none" stroke-linecap="butt" stroke-linejoin="miter" stroke-miterlimit="4" stroke-opacity="1" stroke-width="8.543" d="M 252.6303,146.20734 C 207.54871,153.73978 172.47197,210.47392 172.47197,279.27174 C 172.47197,351.12069 210.73161,409.80612 258.68816,413.03866 C 228.51191,390.04833 207.41279,337.80514 207.41279,277.06836 C 207.41279,220.48028 225.7242,171.26197 252.6303,146.20734 z"/></g><g id="g5051" transform="translate(56.913473,0)"><path id="path3238" stroke="none" stroke-dasharray="none" stroke-linecap="butt" stroke-linejoin="miter" stroke-miterlimit="4" stroke-width="16.996" d="M 443.23521,412.51678 A 62.949749,51.739521 0 1 1 317.33571,412.51678 A 62.949749,51.739521 0 1 1 443.23521,412.51678 z" transform="translate(-60.795204,-130.1329)"/><rect id="rect3240" width="79.334" height="408.742" x="279.823" y="285.833" fill="#000" fill-opacity="1" stroke-dasharray="none" stroke-linecap="butt" stroke-linejoin="miter" stroke-miterlimit="4" stroke-width="16.996"/><rect id="rect5017" width="282.843" height="81.059" x="178.069" y="647.366" fill="#000" fill-opacity="1" stroke="none" stroke-dasharray="none" stroke-linecap="butt" stroke-linejoin="miter" stroke-miterlimit="4" stroke-opacity="1" stroke-width="16.996"/></g></g></svg>